<svg xmlns="http://www.w3.org/2000/svg" viewBox="0 0 400 250">
  <rect width="400" height="250" rx="12" fill="#0d1117"/>
  <defs>
    <linearGradient id="bgp2" x1="0" y1="0" x2="1" y2="1">
      <stop offset="0%" stop-color="#0d1117"/>
      <stop offset="100%" stop-color="#1a2e1a"/>
    </linearGradient>
  </defs>
  <rect width="400" height="250" rx="12" fill="url(#bgp2)"/>
  <!-- Sound wave -->
  <g transform="translate(200, 70)" fill="none" stroke="#3776ab" stroke-width="2.5" opacity="0.5">
    <path d="M-35,0 C-30,-20 -20,-20 -15,0"/>
    <path d="M-15,0 C-10,-30 0,-30 5,0"/>
    <path d="M5,0 C10,-30 20,-30 25,0"/>
    <path d="M25,0 C30,-20 35,-20 40,0"/>
  </g>
  <!-- Python logo simplified -->
  <g transform="translate(200, 140)" fill="none" stroke="#3776ab" stroke-width="2" opacity="0.4">
    <path d="M-15,-15 L15,-15 L15,-5 L-15,-5 Z"/>
    <path d="M-15,5 L15,5 L15,15 L-15,15 Z"/>
    <circle cx="-8" cy="-10" r="2" fill="#3776ab"/>
    <circle cx="8" cy="10" r="2" fill="#3776ab"/>
  </g>
  <!-- WAV text -->
  <text x="200" y="220" text-anchor="middle" fill="#3776ab" font-family="monospace" font-size="14" font-weight="bold">WAV.PY</text>
  <text x="200" y="238" text-anchor="middle" fill="#666" font-family="monospace" font-size="10">Audio Processing · Python</text>
</svg>
